<?xml version="1.0" encoding="utf-8"?>
<!-- Svg Vector Icons : http://www.onlinewebfonts.com/icon -->
<!DOCTYPE svg PUBLIC "-//W3C//DTD SVG 1.1//EN" "http://www.w3.org/Graphics/SVG/1.1/DTD/svg11.dtd">
<svg version="1.1" xmlns="http://www.w3.org/2000/svg" xmlns:xlink="http://www.w3.org/1999/xlink" x="0px" y="0px" viewBox="0 0 256 256" enable-background="new 0 0 256 256" xml:space="preserve">
<metadata> Svg Vector Icons : http://www.onlinewebfonts.com/icon </metadata>
<g><g><path fill="#000000" d="M43.9,126.8H27.8L72.4,246h108.7l45.5-119.2h-9.9l0,0l0,0h-69.7l0,0h-37.5C79.1,130.3,50.2,127.5,43.9,126.8L43.9,126.8z M109.3,126.8h37.5l0,0c0,0,7.6-0.7,30-14.2c22.4-13.5,26.3-24.9,26.3-24.9s14.7,0.3,17.6,9.5c2.9,9.2-4,29.6-4,29.6h9.9c0,0,7.6-30,0-38.6s-20.4-7.6-20.4-7.6s5.6-10.4,1.4-20.1s-27-10-27-10s2.4-9-3.7-16.3c-6.2-7.2-22.8-3.3-27.5-10.7C140.1,8.7,115.2,10,115.2,10s18.9,16.7,12.3,21.4c-6.6,4.7-23.1-4.8-33.7,0c-10.6,4.8-8.6,19-8.6,19s-21.8-1.4-28.3,10c-6.5,11.4,2.8,21.8,2.8,21.8s-14.4-1.9-26.6,8.6c-12.4,10.8-4.1,35.8-4.1,35.8h15.2c-0.8-0.1-1.2-0.1-1.2-0.1s-5.5-7.1-5.5-16.4c0-9.4,2.6-10,5.5-13.2c2.9-3.2,15.1-6.3,30.3-4.5c15.2,1.8,44.6,9,74.2-2.3c29.6-11.3,31.3-27.7,31.3-27.7s11.3-1.6,18.4,2.6c7.1,4.2,3.9,25.2-38.7,48.1C144,120.7,126.4,124.8,109.3,126.8L109.3,126.8z M127.1,236.1H77.5l-35.7-99.6h170.8l-38.2,99.6H127.1c2.8,0,5-2.3,5-4.9v-89.5c0-2.7-2.2-4.9-5-4.9c-2.7,0-5,2.3-5,4.9v89.5C122.2,233.9,124.4,236.1,127.1,236.1L127.1,236.1z M158.1,137.1c-2.7-0.3-5.2,1.6-5.5,4.3l-10.9,88.8c-0.3,2.7,1.6,5.2,4.3,5.5c2.7,0.3,5.2-1.6,5.5-4.3l10.9-88.8C162.7,139.9,160.8,137.4,158.1,137.1z M188.9,138.2c-2.7-0.7-5.4,1-6,3.6l-21.6,86.8c-0.6,2.6,0.9,5.3,3.6,6c2.7,0.7,5.4-1,6-3.6l21.6-86.8C193.1,141.5,191.5,138.9,188.9,138.2z M67.4,138c-2.7,0.6-4.3,3.3-3.7,5.9l20.1,87.2c0.6,2.6,3.3,4.3,5.9,3.7c2.7-0.6,4.3-3.3,3.7-5.9l-20.1-87.2C72.7,139,70,137.4,67.4,138z M98.2,137c-2.7,0.3-4.7,2.8-4.4,5.4l9.4,89c0.3,2.7,2.7,4.7,5.5,4.4c2.7-0.3,4.7-2.8,4.4-5.4l-9.4-89C103.4,138.6,100.9,136.7,98.2,137z M147.2,60.9c-13.2,9.3-46.7,3.3-54.7,1.6c-8.7-1.9-9.4-1.6-9.4-1.6s-16-1.3-16,7.4s10.4,13.8,10.4,13.8s45.5,9.2,69.7-2.5c24.2-11.6,26.2-30.3,22.9-36.4c-3.4-6.1-13.8-6.2-13.8-6.2S160.4,51.6,147.2,60.9z M133.6,38.3c-10.9,4.9-29.1-1.9-35,1.7c-5.9,3.6-2.8,13.8-2.8,13.8s23.8,5.2,37.8,2.1c14-3.2,14-10.8,14-17.6c0-3.7-1.3-7.8-5.1-11.7c-3.2-3.3-9-6.9-9-6.9S144.4,33.4,133.6,38.3z"/></g></g>
</svg>
